<?xml version="1.0" encoding="UTF-8" standalone="no"?>
<svg width="217px" height="46px" viewBox="0 0 217 46" version="1.1" xmlns="http://www.w3.org/2000/svg" xmlns:xlink="http://www.w3.org/1999/xlink" xmlns:sketch="http://www.bohemiancoding.com/sketch/ns">
    <!-- Generator: Sketch 3.5.2 (25235) - http://www.bohemiancoding.com/sketch -->
    <title>Artboard 1</title>
    <desc>Created with Sketch.</desc>
    <defs></defs>
    <g id="Page-1" stroke="none" stroke-width="1" fill="none" fill-rule="evenodd" sketch:type="MSPage">
        <g id="Artboard-1" sketch:type="MSArtboardGroup">
            <g id="database" sketch:type="MSLayerGroup" transform="translate(4.000000, 4.000000)" fill="#F6A623">
                <path d="M15.8241945,16.4034552 C9.62226462,16.4034552 3.39972923,15.2751547 0,12.8513989 L0,16.4034552 C0,19.3495733 7.08792,21.7524347 15.8241945,21.7524347 C24.5604689,21.7524347 31.6483889,19.3495733 31.6483889,16.4034552 L31.6483889,12.8513989 C28.2486597,15.2751547 22.0261255,16.4034552 15.8241945,16.4034552 L15.8241945,16.4034552 Z M15.8241945,32.450395 C9.62226462,32.450395 3.39972923,31.3220944 0,28.8983386 L0,32.450395 C0,35.396513 7.08792,37.7993757 15.8241945,37.7993757 C24.5604689,37.7993757 31.6483889,35.396513 31.6483889,32.450395 L31.6483889,28.8983386 C28.2486597,31.3220944 22.0261255,32.450395 15.8241945,32.450395 L15.8241945,32.450395 Z M15.8241945,24.4269251 C9.62226462,24.4269251 3.39972923,23.2986245 0,20.8748687 L0,24.4269251 C0,27.3730431 7.08792,29.7759058 15.8241945,29.7759058 C24.5604689,29.7759058 31.6483889,27.3730431 31.6483889,24.4269251 L31.6483889,20.8748687 C28.2486597,23.2986245 22.0261255,24.4269251 15.8241945,24.4269251 L15.8241945,24.4269251 Z M15.8241945,0.35651551 C7.08792,0.35651551 0,2.75937698 0,5.705495 L0,8.37998537 C0,11.3261034 7.08792,13.7289649 15.8241945,13.7289649 C24.5604689,13.7289649 31.6483889,11.3261034 31.6483889,8.37998537 L31.6483889,5.705495 C31.6483889,2.75937698 24.5604689,0.35651551 15.8241945,0.35651551 L15.8241945,0.35651551 Z" id="Shape" sketch:type="MSShapeGroup"></path>
            </g>
            <g id="Group" sketch:type="MSLayerGroup" transform="translate(48.000000, 13.000000)" fill="#FFFFFF">
                <path d="M9.27601105,15.5759945 C9.27601105,16.1658648 9.16429486,16.7289144 8.94085912,17.2651602 C8.71742338,17.801406 8.40908668,18.270614 8.01583978,18.6727983 C7.62259288,19.0749827 7.16232216,19.3967253 6.63501381,19.6380359 C6.10770547,19.8793465 5.5401872,20 4.93244199,20 C4.41407107,20 3.88677064,19.9285016 3.35052486,19.7855028 C2.81427909,19.6425039 2.33166513,19.3967283 1.90266851,19.0481685 C1.47367189,18.6996088 1.12064871,18.239338 0.843588398,17.6673425 C0.566528081,17.095347 0.428,16.3714261 0.428,15.495558 L0.428,4.98519337 C0.428,4.3595733 0.535247546,3.77864909 0.749745856,3.24240331 C0.964244166,2.70615754 1.26811221,2.24141817 1.66135912,1.84817127 C2.05460602,1.45492437 2.52381403,1.14658767 3.06899724,0.923151934 C3.61418044,0.699716194 4.21744789,0.588 4.87881768,0.588 C5.50443775,0.588 6.08536196,0.699716194 6.62160773,0.923151934 C7.15785351,1.14658767 7.62259288,1.45939302 8.01583978,1.86157735 C8.40908668,2.26376168 8.71742338,2.74637564 8.94085912,3.3094337 C9.16429486,3.87249177 9.27601105,4.48469651 9.27601105,5.1460663 L9.27601105,6.21855249 L6.54117127,6.21855249 L6.54117127,5.30693923 C6.54117127,4.77069345 6.38923725,4.30595408 6.08536464,3.91270718 C5.78149203,3.51946028 5.37037644,3.32283978 4.85200552,3.32283978 C4.17276088,3.32283978 3.72142745,3.53286622 3.49799171,3.95292541 C3.27455597,4.3729846 3.16283978,4.90475369 3.16283978,5.54824862 L3.16283978,15.3078729 C3.16283978,15.8619936 3.28349327,16.3267329 3.52480387,16.702105 C3.76611447,17.077477 4.1995733,17.2651602 4.82519337,17.2651602 C5.00394196,17.2651602 5.19609382,17.2338797 5.4016547,17.1713177 C5.60721558,17.1087557 5.79489878,17.0059768 5.96470994,16.8629779 C6.13452111,16.719979 6.27304919,16.5233585 6.38029834,16.2731105 C6.4875475,16.0228625 6.54117127,15.7100571 6.54117127,15.3346851 L6.54117127,14.3962597 L9.27601105,14.3962597 L9.27601105,15.5759945 Z M12.5265905,0.748872928 L15.2614303,0.748872928 L15.2614303,17.1042873 L20.6774855,17.1042873 L20.6774855,19.8391271 L12.5265905,19.8391271 L12.5265905,0.748872928 Z M23.5526948,0.748872928 L26.2875345,0.748872928 L26.2875345,19.8391271 L23.5526948,19.8391271 L23.5526948,0.748872928 Z M29.9671084,0.748872928 L38.1180035,0.748872928 L38.1180035,3.32283978 L32.7019482,3.32283978 L32.7019482,8.92658011 L37.4208874,8.92658011 L37.4208874,11.500547 L32.7019482,11.500547 L32.7019482,17.1042873 L38.1180035,17.1042873 L38.1180035,19.8391271 L29.9671084,19.8391271 L29.9671084,0.748872928 Z M40.8055276,0.748872928 L43.4331188,0.748872928 L47.5621906,12.2512873 L47.6158149,12.2512873 L47.6158149,0.748872928 L50.3506547,0.748872928 L50.3506547,19.8391271 L47.7766879,19.8391271 L43.5939917,8.36352486 L43.5403674,8.36352486 L43.5403674,19.8391271 L40.8055276,19.8391271 L40.8055276,0.748872928 Z M55.6389579,3.32283978 L52.4751236,3.32283978 L52.4751236,0.748872928 L61.5376319,0.748872928 L61.5376319,3.32283978 L58.3737977,3.32283978 L58.3737977,19.8391271 L55.6389579,19.8391271 L55.6389579,3.32283978 Z M69.7815808,0.748872928 L73.8302162,0.748872928 C75.3853289,0.748872928 76.5739892,1.18233176 77.3962328,2.04926243 C78.2184763,2.9161931 78.6295919,4.12719664 78.6295919,5.68230939 L78.6295919,14.6107569 C78.6295919,16.3982428 78.196133,17.7164939 77.3292024,18.5655497 C76.4622717,19.4146055 75.215519,19.8391271 73.5889068,19.8391271 L69.7815808,19.8391271 L69.7815808,0.748872928 Z M72.5164206,17.2651602 L73.7765919,17.2651602 C74.5452108,17.2651602 75.0903858,17.0730084 75.4121333,16.6886989 C75.7338808,16.3043894 75.8947521,15.701122 75.8947521,14.8788785 L75.8947521,5.68230939 C75.8947521,4.93156531 75.7428181,4.3506411 75.4389455,3.93951934 C75.1350729,3.52839758 74.5809605,3.32283978 73.7765919,3.32283978 L72.5164206,3.32283978 L72.5164206,17.2651602 Z M86.0896796,6.24536464 L86.0360553,6.24536464 L84.6954475,13.1629006 L87.4302873,13.1629006 L86.0896796,6.24536464 Z M84.9367569,0.748872928 L87.2157901,0.748872928 L91.4789227,19.8391271 L88.7440829,19.8391271 L87.9397183,15.7368674 L84.2128288,15.7368674 L83.4084641,19.8391271 L80.6736243,19.8391271 L84.9367569,0.748872928 Z M94.1664469,3.32283978 L91.0026126,3.32283978 L91.0026126,0.748872928 L100.065121,0.748872928 L100.065121,3.32283978 L96.9012866,3.32283978 L96.9012866,19.8391271 L94.1664469,19.8391271 L94.1664469,3.32283978 Z M105.004866,6.24536464 L104.951242,6.24536464 L103.610634,13.1629006 L106.345474,13.1629006 L105.004866,6.24536464 Z M103.851943,0.748872928 L106.130977,0.748872928 L110.394109,19.8391271 L107.659269,19.8391271 L106.854905,15.7368674 L103.128015,15.7368674 L102.323651,19.8391271 L99.5888108,19.8391271 L103.851943,0.748872928 Z M112.759887,0.748872928 L116.754899,0.748872928 C117.630767,0.748872928 118.377031,0.882932361 118.993713,1.15105525 C119.610396,1.41917814 120.115353,1.77666996 120.5086,2.22354144 C120.901847,2.67041292 121.183372,3.18430741 121.353183,3.76524033 C121.522994,4.34617325 121.607899,4.9494407 121.607899,5.57506077 L121.607899,6.2721768 C121.607899,6.79054771 121.567681,7.22847519 121.487244,7.58597238 C121.406807,7.94346956 121.286153,8.2562749 121.12528,8.52439779 C120.964406,8.79252068 120.767785,9.02935901 120.535412,9.23491989 C120.303039,9.44048077 120.03492,9.63263262 119.731048,9.81138122 C120.374543,10.1152538 120.848219,10.5665872 121.152092,11.165395 C121.455964,11.7642028 121.607899,12.5640908 121.607899,13.5650829 L121.607899,14.6375691 C121.607899,16.3178058 121.201252,17.6047764 120.387945,18.4985193 C119.574639,19.3922623 118.274263,19.8391271 116.486777,19.8391271 L112.759887,19.8391271 L112.759887,0.748872928 Z M115.494727,17.1042873 L116.674462,17.1042873 C117.228583,17.1042873 117.662042,17.0238516 117.974852,16.8629779 C118.287662,16.7021042 118.5245,16.4786718 118.685374,16.192674 C118.846247,15.9066763 118.944558,15.5670591 118.980307,15.1738122 C119.016057,14.7805653 119.033932,14.3515751 119.033932,13.8868287 C119.033932,13.4042075 119.00712,12.9841546 118.953495,12.6266575 C118.899871,12.2691603 118.788154,11.9697609 118.618343,11.7284503 C118.448532,11.4871397 118.211694,11.3039251 117.907821,11.1788011 C117.603949,11.0536771 117.20177,10.991116 116.701274,10.991116 L115.494727,10.991116 L115.494727,17.1042873 Z M115.494727,8.5780221 L116.728086,8.5780221 C117.639704,8.5780221 118.251909,8.35012106 118.564719,7.89431215 C118.877529,7.43850325 119.033932,6.77267473 119.033932,5.89680663 C119.033932,5.03881339 118.859654,4.39532811 118.511095,3.96633149 C118.162535,3.53733487 117.532456,3.32283978 116.620838,3.32283978 L115.494727,3.32283978 L115.494727,8.5780221 Z M129.067986,6.24536464 L129.014362,6.24536464 L127.673754,13.1629006 L130.408594,13.1629006 L129.067986,6.24536464 Z M127.915064,0.748872928 L130.194097,0.748872928 L134.457229,19.8391271 L131.72239,19.8391271 L130.918025,15.7368674 L127.191135,15.7368674 L126.386771,19.8391271 L123.651931,19.8391271 L127.915064,0.748872928 Z M145.671019,6.24536464 L142.936179,6.24536464 L142.936179,5.62868508 C142.936179,5.00306501 142.788714,4.46235863 142.493778,4.00654972 C142.198843,3.55074081 141.702823,3.32283978 141.005704,3.32283978 C140.630332,3.32283978 140.321995,3.39433814 140.080684,3.53733702 C139.839374,3.68033589 139.651691,3.86355045 139.517629,4.08698619 C139.383568,4.31042193 139.289726,4.5696035 139.236102,4.86453867 C139.182477,5.15947385 139.155665,5.46781055 139.155665,5.78955801 C139.155665,6.16493005 139.169071,6.48220404 139.195883,6.7413895 C139.222696,7.00057496 139.289725,7.22400735 139.396974,7.41169337 C139.504224,7.59937939 139.660626,7.76471936 139.866187,7.90771823 C140.071748,8.05071711 140.353273,8.19371383 140.71077,8.33671271 L142.802118,9.1678895 C143.409863,9.40026267 143.901415,9.67285019 144.276787,9.98566022 C144.652159,10.2984703 144.942621,10.6648994 145.148182,11.0849586 C145.353743,11.5050178 145.492271,11.9876317 145.56377,12.5328149 C145.63527,13.0779981 145.671019,13.6991402 145.671019,14.3962597 C145.671019,15.2006283 145.590583,15.9468925 145.429709,16.6350746 C145.268836,17.3232567 145.005185,17.9131182 144.638751,18.4046768 C144.272316,18.8962354 143.785234,19.2850078 143.177488,19.5710055 C142.569743,19.8570033 141.827948,20 140.952079,20 C140.29071,20 139.674036,19.8838152 139.102041,19.651442 C138.530045,19.4190688 138.038494,19.1017948 137.627372,18.6996105 C137.216251,18.2974262 136.890039,17.8192809 136.648729,17.2651602 C136.407418,16.7110396 136.286765,16.1122408 136.286765,15.4687459 L136.286765,14.449884 L139.021604,14.449884 L139.021604,15.3078729 C139.021604,15.808369 139.16907,16.2597024 139.464005,16.6618867 C139.75894,17.0640711 140.25496,17.2651602 140.952079,17.2651602 C141.416826,17.2651602 141.778786,17.1981305 142.037972,17.0640691 C142.297157,16.9300076 142.493778,16.7423244 142.627839,16.5010138 C142.761901,16.2597032 142.846805,15.9603038 142.882555,15.6028066 C142.918304,15.2453094 142.936179,14.8520684 142.936179,14.4230718 C142.936179,13.9225758 142.918304,13.5114602 142.882555,13.1897127 C142.846805,12.8679652 142.770838,12.6087837 142.654651,12.4121602 C142.538465,12.2155368 142.377593,12.0546655 142.172032,11.9295414 C141.966472,11.8044174 141.693884,11.670358 141.354262,11.5273591 L139.396974,10.7229945 C138.217234,10.2403733 137.426283,9.60135665 137.024099,8.80592541 C136.621914,8.01049418 136.420825,7.01398573 136.420825,5.81637017 C136.420825,5.1013758 136.519136,4.42214134 136.715759,3.77864641 C136.912382,3.13515148 137.202845,2.58103916 137.587154,2.11629282 C137.971464,1.65154648 138.458546,1.28064871 139.048416,1.0035884 C139.638287,0.726528081 140.326459,0.588 141.112952,0.588 C141.792197,0.588 142.413339,0.713122137 142.976397,0.963370166 C143.539455,1.21361819 144.022069,1.54429813 144.424253,1.95541989 C144.826438,2.36654165 145.134775,2.82681237 145.349273,3.33624586 C145.563771,3.84567934 145.671019,4.36851113 145.671019,4.90475691 L145.671019,6.24536464 Z M148.733913,0.748872928 L156.884808,0.748872928 L156.884808,3.32283978 L151.468753,3.32283978 L151.468753,8.92658011 L156.187692,8.92658011 L156.187692,11.500547 L151.468753,11.500547 L151.468753,17.1042873 L156.884808,17.1042873 L156.884808,19.8391271 L148.733913,19.8391271 L148.733913,0.748872928 Z" id="CLIENT-DATABASE" sketch:type="MSShapeGroup"></path>
            </g>
        </g>
    </g>
</svg>