<?xml version="1.0" encoding="UTF-8" standalone="no"?>
<svg width="281px" height="66px" viewBox="0 0 281 66" version="1.1" xmlns="http://www.w3.org/2000/svg" xmlns:xlink="http://www.w3.org/1999/xlink" xmlns:sketch="http://www.bohemiancoding.com/sketch/ns">
    <!-- Generator: Sketch 3.5.2 (25235) - http://www.bohemiancoding.com/sketch -->
    <title>Artboard 1</title>
    <desc>Created with Sketch.</desc>
    <defs></defs>
    <g id="Page-1" stroke="none" stroke-width="1" fill="none" fill-rule="evenodd" sketch:type="MSPage">
        <g id="Artboard-1" sketch:type="MSArtboardGroup" fill="#000000">
            <g id="logo-white" sketch:type="MSLayerGroup" transform="translate(64.000000, 9.000000)">
                <g id="Artboard-1" sketch:type="MSShapeGroup">
                    <g id="Page-1">
                        <g id="Artboard-1">
                            <g id="Current-BAC-Logo_blck">
                                <g id="Logo---Top">
                                    <path d="M3.65272757,11.947 C3.65272757,12.993 4.1274485,13.5595 5.3788505,13.5595 C6.52283389,13.5595 7.8821495,12.6875 7.8821495,10.029 C7.8821495,8.2195 6.95399336,6.7595 4.81799668,6.7595 C3.82499336,6.7595 3.65272757,6.89 3.65272757,7.3695 L3.65272757,11.947 L3.65272757,11.947 L3.65272757,11.947 Z M3.65272757,5.321 C3.65272757,6.062 3.86855482,6.149 4.49425581,6.149 C5.98326578,6.149 7.23466777,5.408 7.23466777,3.2285 C7.23466777,1.6375 6.32829236,0.7 4.81799668,0.7 C3.82499336,0.7 3.65272757,1.027 3.65272757,1.594 L3.65272757,5.321 L3.65272757,5.321 L3.65272757,5.321 Z M1.53801661,1.4195 C1.53801661,1.136 1.40832226,0.9615 1.04151495,0.9615 L0.372747508,0.9615 C0.221767442,0.9615 0.113853821,0.896 0.113853821,0.722 C0.113853821,0.504 0.329681063,0.395 0.631641196,0.3515 C2.40132558,0.1335 3.52303322,0.09 4.86106312,0.09 C7.75245515,0.09 9.39244518,1.0925 9.39244518,3.25 C9.39244518,5.0155 8.31330897,5.822 6.69509967,6.367 L6.69509967,6.4105 C8.70189701,6.6505 10.2126877,8.067 10.2126877,10.116 C10.2126877,12.165 8.6806113,14.17 6.45798671,14.17 C5.50854485,14.17 4.68830233,14.0825 3.24285382,14.0825 C1.9696711,14.0825 1.12814286,14.17 0.588574751,14.17 C0.221767442,14.17 0.113853821,14.0825 0.113853821,13.93 C0.113853821,13.734 0.221767442,13.734 0.674707641,13.5815 C1.38703654,13.342 1.53801661,13.2765 1.53801661,12.6875 L1.53801661,1.4195 L1.53801661,1.4195 L1.53801661,1.4195 Z" id="Fill-3"></path>
                                    <path d="M15.4563987,4.4055 C13.6649336,4.4055 13.3629734,7.217 13.3629734,7.653 C13.3629734,8.0015 13.557515,8.111 14.2693488,8.111 C16.2979269,8.111 16.8805615,7.8275 16.8805615,6.563 C16.8805615,5.6475 16.5132591,4.4055 15.4563987,4.4055 L15.4563987,4.4055 L15.4563987,4.4055 Z M13.7297807,8.634 C13.3629734,8.634 13.2768405,8.699 13.2768405,9.3965 C13.2768405,11.489 14.1832159,13.342 15.823206,13.342 C18.088897,13.342 17.9592027,11.598 18.4126379,11.598 C18.5849037,11.598 18.6497508,11.6855 18.6497508,11.8595 C18.6497508,12.4045 17.6354618,14.4315 15.2187907,14.4315 C13.0392326,14.4315 11.2918239,12.6225 11.2918239,9.266 C11.2918239,6.4545 12.845186,3.8825 15.3915515,3.8825 C17.6354618,3.8825 18.6497508,5.844 18.6497508,7.74 C18.6497508,8.481 18.47699,8.634 18.0022691,8.634 L13.7297807,8.634 L13.7297807,8.634 L13.7297807,8.634 Z" id="Fill-4"></path>
                                    <path d="M22.231691,12.4265 C22.231691,13.211 22.469299,13.5595 23.1380664,13.6465 C23.9365282,13.756 24.0013754,13.7995 24.0013754,13.974 C24.0013754,14.061 23.9365282,14.17 23.7637674,14.17 C23.3969601,14.17 22.706412,14.0825 21.4332292,14.0825 C20.3110266,14.0825 19.6209734,14.17 19.2323854,14.17 C19.0814053,14.17 18.951711,14.1265 18.951711,13.9955 C18.951711,13.8215 19.0596246,13.756 19.5991927,13.6465 C20.2679601,13.516 20.3328073,13.298 20.3328073,12.579 L20.3328073,6.367 C20.3328073,5.8655 19.9229336,5.8005 19.577412,5.757 C19.2967375,5.713 19.0814053,5.6695 19.0814053,5.495 C19.0814053,5.168 19.4694983,5.299 20.7426811,4.58 C21.6272757,4.0785 21.6272757,3.795 21.8218173,3.795 C21.9297309,3.795 21.9727973,3.9695 21.9727973,4.3185 L21.9727973,6.0185 C21.9727973,6.0835 21.9945781,6.1055 22.0158638,6.1055 C22.1019967,6.1055 23.0083721,3.8825 24.4760963,3.8825 C25.2527774,3.8825 25.8136312,4.536 25.8136312,5.2775 C25.8136312,5.975 25.4255382,6.716 24.7562757,6.716 C24.2384884,6.716 24.0444419,6.4545 23.9365282,6.062 C23.8068339,5.626 23.8934618,5.2335 23.5261595,5.2335 C22.7925449,5.2335 22.231691,6.5415 22.231691,8.067 L22.231691,12.4265" id="Fill-5"></path>
                                    <path d="M29.3742857,12.7315 C29.3742857,13.3635 29.5683322,13.4945 30.1727475,13.6465 C30.5608405,13.756 30.6256877,13.843 30.6256877,13.952 C30.6256877,14.0825 30.5177741,14.17 30.3885748,14.17 C29.9999867,14.17 29.1797442,14.0825 28.5758239,14.0825 C28.0144751,14.0825 27.3026412,14.17 26.849206,14.17 C26.5254651,14.17 26.4393322,14.1265 26.4393322,13.974 C26.4393322,13.7995 26.5041794,13.734 26.8279203,13.6465 C27.4318405,13.4945 27.6046013,13.429 27.6046013,12.8185 L27.6046013,6.2145 C27.6046013,5.7785 27.4318405,5.604 27.0219668,5.5825 C26.6769402,5.5605 26.5903123,5.5825 26.5903123,5.408 C26.5903123,5.212 26.6551595,5.2335 27.6907342,4.776 C29.0074784,4.1875 29.0505449,3.7515 29.2876578,3.7515 C29.3955714,3.7515 29.4604186,3.795 29.4604186,4.231 L29.4604186,5.19 C29.4604186,5.299 29.4821993,5.321 29.5252658,5.321 C29.6544651,5.343 30.5177741,3.8825 32.1790498,3.8825 C33.8626013,3.8825 33.9700199,5.386 34.2937608,5.386 C34.6179967,5.386 35.3080498,3.8825 36.9049734,3.8825 C38.113309,3.8825 39.2137309,4.7325 39.2137309,6.389 L39.2137309,12.775 C39.2137309,13.2325 39.3216445,13.4505 39.9042791,13.625 C40.3141528,13.756 40.4869136,13.7775 40.4869136,13.952 C40.4869136,14.1265 40.3577143,14.17 40.2067342,14.17 C39.7750797,14.17 38.9548372,14.0825 38.3291362,14.0825 C37.8113488,14.0825 36.9911063,14.17 36.6678605,14.17 C36.4302525,14.17 36.3223389,14.0825 36.3223389,13.974 C36.3223389,13.756 36.5812326,13.6905 36.7327076,13.6465 C37.4014751,13.4505 37.4445415,13.3635 37.4445415,12.557 L37.4445415,6.4545 C37.4445415,5.495 36.9698206,4.972 36.1065116,4.972 C35.135289,4.972 34.2937608,5.8655 34.2937608,6.7595 L34.2937608,12.4265 C34.2937608,13.32 34.4021694,13.5595 35.0491561,13.6685 C35.4590299,13.756 35.6535714,13.8215 35.6535714,13.9955 C35.6535714,14.1045 35.5887243,14.17 35.3941827,14.17 C34.8981761,14.17 34.0784286,14.0825 33.4091661,14.0825 C32.9992924,14.0825 32.1359834,14.17 31.7043289,14.17 C31.4672159,14.17 31.4241495,14.0825 31.4241495,13.952 C31.4241495,13.7995 31.5320631,13.734 31.9201561,13.6465 C32.2226113,13.5815 32.5245714,13.4505 32.5245714,12.9495 L32.5245714,6.6505 C32.5245714,5.539 31.8988704,4.972 31.229608,4.972 C30.1509668,4.972 29.3742857,5.8005 29.3742857,6.8465 L29.3742857,12.7315" id="Fill-6"></path>
                                    <path d="M45.3638173,8.895 C45.3638173,8.634 45.2989701,8.5905 45.14799,8.5905 C44.8673156,8.5905 42.882299,10.312 42.8174518,11.838 C42.8174518,12.5135 43.1842591,13.0365 43.7881794,13.0365 C44.8024684,13.0365 45.3638173,12.252 45.3638173,10.2905 L45.3638173,8.895 L45.3638173,8.895 L45.3638173,8.895 Z M47.1330066,11.903 C47.1330066,12.775 47.5215947,13.0365 47.8453355,13.0365 C48.2982757,13.0365 48.3631229,12.339 48.7081495,12.339 C48.8378439,12.339 48.902691,12.4265 48.902691,12.6005 C48.902691,13.32 47.9532492,14.344 47.025588,14.344 C45.6444917,14.344 45.4930166,12.7315 45.2341229,12.7315 C44.9752292,12.7315 44.3277475,14.4315 42.644691,14.4315 C41.5224884,14.4315 40.8324352,13.8215 40.8324352,12.535 C40.8324352,10.1375 45.3638173,8.612 45.3638173,7.239 L45.3638173,5.3645 C45.3638173,4.798 45.0400764,4.4055 44.4574419,4.4055 C43.6371993,4.4055 42.9253654,5.103 42.7961661,6.258 C42.6877575,7.217 42.256598,7.8055 41.4581362,7.8055 C40.9403488,7.8055 40.6814551,7.522 40.6814551,7.0865 C40.6814551,6.2365 42.4075781,3.8825 44.99701,3.8825 C46.6800664,3.8825 47.1330066,4.1875 47.1330066,5.3645 L47.1330066,11.903 L47.1330066,11.903 L47.1330066,11.903 Z" id="Fill-7"></path>
                                    <path d="M55.397804,6.7375 C55.397804,5.4735 54.8364551,4.972 54.0597741,4.972 C53.2400266,4.972 52.5707641,5.539 52.2039568,6.607 L52.2039568,12.666 C52.2039568,13.342 52.4628505,13.516 52.9157907,13.6465 C53.3479402,13.7775 53.4122924,13.843 53.4122924,13.952 C53.4122924,14.0825 53.3479402,14.17 53.1533987,14.17 C52.7435249,14.17 52.1608904,14.0825 51.2758007,14.0825 C50.5857475,14.0825 49.916485,14.17 49.5714585,14.17 C49.3343455,14.17 49.2259369,14.1265 49.2259369,13.93 C49.2259369,13.756 49.3986977,13.6685 49.6793721,13.6035 C50.2620066,13.4725 50.4347674,13.32 50.4347674,12.579 L50.4347674,6.476 C50.4347674,5.822 50.3268538,5.757 49.9813322,5.6475 C49.6793721,5.5605 49.3343455,5.6475 49.3343455,5.408 C49.3343455,5.103 49.765505,5.1465 50.6500997,4.667 C51.8802159,3.991 51.7510166,3.7515 52.031196,3.7515 C52.1608904,3.7515 52.2039568,3.839 52.2039568,4.1005 L52.2039568,5.604 L52.2470233,5.604 C52.9593522,4.7325 53.5419867,3.8825 54.7933887,3.8825 C56.1314186,3.8825 57.1669934,4.6235 57.1669934,6.6285 L57.1669934,12.8625 C57.1669934,13.298 57.3610399,13.5595 57.8793223,13.6465 C58.3104817,13.734 58.3753289,13.8215 58.3753289,13.9955 C58.3753289,14.0825 58.2674153,14.17 58.0946545,14.17 C57.8357608,14.17 57.3397542,14.0825 56.2393322,14.0825 C55.7210498,14.0825 55.1819767,14.17 54.6641894,14.17 C54.4048007,14.17 54.2756013,14.1045 54.2756013,13.952 C54.2756013,13.7775 54.3404485,13.734 54.6424086,13.6465 C55.2898904,13.4505 55.397804,13.342 55.397804,12.8625 L55.397804,6.7375" id="Fill-8"></path>
                                    <path d="M88.5188704,13.8215 C89.2960465,13.8215 90.0940133,13.3635 90.5474485,11.5545 C91.0434551,9.593 91.0870166,9.5495 91.3023488,9.5495 C91.6696512,9.5495 91.7122226,9.593 91.7122226,11.9905 C91.7122226,13.124 91.6478704,13.429 91.3889767,13.6685 C91.0870166,13.952 89.8999668,14.4315 88.475804,14.4315 C85.0666246,14.4315 82.9731993,11.053 82.9731993,7.217 C82.9731993,2.8145 85.4116512,0.09 88.4540233,0.09 C89.5762259,0.09 90.503887,0.308 91.1518638,0.722 C91.3889767,0.8745 91.4102625,0.918 91.4102625,2.444 C91.4102625,4.0565 91.367196,4.144 91.0003887,4.144 C90.8058472,4.144 90.6553621,3.926 90.2237076,2.7055 C89.5980066,0.94 89.0797243,0.7 88.3466047,0.7 C86.4041595,0.7 85.3037375,2.618 85.3037375,7.13 C85.3037375,11.6855 86.8575947,13.8215 88.5188704,13.8215" id="Fill-9"></path>
                                    <path d="M98.63899,9.157 C98.63899,7.13 97.8835947,4.4055 96.4812126,4.4055 C95.0783355,4.4055 94.3234352,7.13 94.3234352,9.157 C94.3234352,11.184 95.0783355,13.9085 96.4812126,13.9085 C97.8835947,13.9085 98.63899,11.184 98.63899,9.157 L98.63899,9.157 L98.63899,9.157 Z M96.4812126,14.4315 C94.0858272,14.4315 92.3379236,11.9685 92.3379236,9.157 C92.3379236,6.345 94.0858272,3.8825 96.4812126,3.8825 C98.876103,3.8825 100.624007,6.345 100.624007,9.157 C100.624007,11.9685 98.876103,14.4315 96.4812126,14.4315 L96.4812126,14.4315 L96.4812126,14.4315 Z" id="Fill-10"></path>
                                    <path d="M103.558465,12.7315 C103.558465,13.3635 103.753007,13.4945 104.356927,13.6465 C104.745515,13.756 104.809867,13.843 104.809867,13.952 C104.809867,14.0825 104.702449,14.17 104.572754,14.17 C104.184661,14.17 103.364419,14.0825 102.760498,14.0825 C102.19915,14.0825 101.487316,14.17 101.034375,14.17 C100.71014,14.17 100.624007,14.1265 100.624007,13.974 C100.624007,13.7995 100.688359,13.734 101.012595,13.6465 C101.616515,13.4945 101.789276,13.429 101.789276,12.8185 L101.789276,6.2145 C101.789276,5.7785 101.616515,5.604 101.206641,5.5825 C100.861615,5.5605 100.774987,5.5825 100.774987,5.408 C100.774987,5.212 100.839834,5.2335 101.875904,4.776 C103.191658,4.1875 103.235219,3.7515 103.472332,3.7515 C103.580246,3.7515 103.645093,3.795 103.645093,4.231 L103.645093,5.19 C103.645093,5.299 103.666379,5.321 103.70994,5.321 C103.839635,5.343 104.702449,3.8825 106.363724,3.8825 C108.047276,3.8825 108.154694,5.386 108.47893,5.386 C108.802176,5.386 109.492724,3.8825 111.089648,3.8825 C112.297983,3.8825 113.398405,4.7325 113.398405,6.389 L113.398405,12.775 C113.398405,13.2325 113.506319,13.4505 114.088953,13.625 C114.499322,13.756 114.671588,13.7775 114.671588,13.952 C114.671588,14.1265 114.542389,14.17 114.390914,14.17 C113.959754,14.17 113.139512,14.0825 112.513811,14.0825 C111.995528,14.0825 111.175781,14.17 110.852535,14.17 C110.614927,14.17 110.507013,14.0825 110.507013,13.974 C110.507013,13.756 110.765907,13.6905 110.916887,13.6465 C111.585654,13.4505 111.629216,13.3635 111.629216,12.557 L111.629216,6.4545 C111.629216,5.495 111.154495,4.972 110.291186,4.972 C109.320458,4.972 108.47893,5.8655 108.47893,6.7595 L108.47893,12.4265 C108.47893,13.32 108.586349,13.5595 109.233831,13.6685 C109.643704,13.756 109.838246,13.8215 109.838246,13.9955 C109.838246,14.1045 109.773399,14.17 109.578857,14.17 C109.082355,14.17 108.262608,14.0825 107.593841,14.0825 C107.183472,14.0825 106.320658,14.17 105.889003,14.17 C105.65189,14.17 105.608824,14.0825 105.608824,13.952 C105.608824,13.7995 105.716738,13.734 106.104831,13.6465 C106.406791,13.5815 106.708751,13.4505 106.708751,12.9495 L106.708751,6.6505 C106.708751,5.539 106.083545,4.972 105.414282,4.972 C104.335146,4.972 103.558465,5.8005 103.558465,6.8465 L103.558465,12.7315" id="Fill-11"></path>
                                    <path d="M117.131326,11.4235 C117.131326,12.9055 117.649608,13.6905 118.642116,13.6905 C120.023213,13.6905 120.886027,12.034 120.886027,9.375 C120.886027,6.6285 120.023213,4.972 118.706963,4.972 C117.843654,4.972 117.131326,5.713 117.131326,6.389 L117.131326,11.4235 L117.131326,11.4235 L117.131326,11.4235 Z M117.131326,16.938 C117.131326,17.875 117.368934,18.115 118.447575,18.224 C118.857449,18.2675 118.944076,18.333 118.944076,18.4855 C118.944076,18.638 118.857449,18.747 118.577269,18.747 C118.059482,18.747 117.627827,18.66 116.397711,18.66 C115.77201,18.66 115.146309,18.747 114.520608,18.747 C114.239934,18.747 114.002821,18.7255 114.002821,18.4855 C114.002821,18.202 114.218153,18.224 114.477542,18.1805 C114.930482,18.0935 115.362136,18.1365 115.362136,17.5265 L115.362136,6.4105 C115.362136,5.7785 115.038395,5.8005 114.563674,5.6695 C114.283,5.5825 114.067668,5.5825 114.067668,5.386 C114.067668,5.0595 114.542389,5.168 115.858638,4.4925 C116.678385,4.0785 116.743233,3.8825 116.937279,3.8825 C117.045193,3.8825 117.066478,3.926 117.066478,4.4055 C117.066478,5.2555 117.088259,5.2775 117.153106,5.2775 C117.239239,5.2775 118.275309,3.8825 119.591558,3.8825 C121.490442,3.8825 122.871538,6.062 122.871538,8.83 C122.871538,12.208 121.037502,14.2135 118.965362,14.2135 C117.843654,14.2135 117.304086,13.6465 117.217953,13.6465 C117.153106,13.6465 117.131326,13.6905 117.131326,13.93 L117.131326,16.938 L117.131326,16.938 L117.131326,16.938 Z" id="Fill-12"></path>
                                    <path d="M128.265734,8.895 C128.265734,8.634 128.200887,8.5905 128.049907,8.5905 C127.769233,8.5905 125.784216,10.312 125.719369,11.838 C125.719369,12.5135 126.086176,13.0365 126.690591,13.0365 C127.704385,13.0365 128.265734,12.252 128.265734,10.2905 L128.265734,8.895 L128.265734,8.895 L128.265734,8.895 Z M130.034924,11.903 C130.034924,12.775 130.423512,13.0365 130.747252,13.0365 C131.200193,13.0365 131.26504,12.339 131.610561,12.339 C131.739761,12.339 131.804608,12.4265 131.804608,12.6005 C131.804608,13.32 130.855166,14.344 129.927505,14.344 C128.546409,14.344 128.395429,12.7315 128.136535,12.7315 C127.877146,12.7315 127.229664,14.4315 125.546608,14.4315 C124.424405,14.4315 123.734352,13.8215 123.734352,12.535 C123.734352,10.1375 128.265734,8.612 128.265734,7.239 L128.265734,5.3645 C128.265734,4.798 127.941993,4.4055 127.359359,4.4055 C126.539611,4.4055 125.827282,5.103 125.698083,6.258 C125.590169,7.217 125.158515,7.8055 124.360053,7.8055 C123.842266,7.8055 123.582877,7.522 123.582877,7.0865 C123.582877,6.2365 125.309495,3.8825 127.898927,3.8825 C129.581983,3.8825 130.034924,4.1875 130.034924,5.3645 L130.034924,11.903 L130.034924,11.903 L130.034924,11.903 Z" id="Fill-13"></path>
                                    <path d="M138.299721,6.7375 C138.299721,5.4735 137.738372,4.972 136.961691,4.972 C136.141449,4.972 135.472681,5.539 135.106369,6.607 L135.106369,12.666 C135.106369,13.342 135.364767,13.516 135.818203,13.6465 C136.249362,13.7775 136.314209,13.843 136.314209,13.952 C136.314209,14.0825 136.249362,14.17 136.055811,14.17 C135.645442,14.17 135.062807,14.0825 134.178213,14.0825 C133.487664,14.0825 132.818897,14.17 132.473375,14.17 C132.236262,14.17 132.128349,14.1265 132.128349,13.93 C132.128349,13.756 132.30111,13.6685 132.581289,13.6035 C133.163924,13.4725 133.336189,13.32 133.336189,12.579 L133.336189,6.476 C133.336189,5.822 133.228771,5.757 132.883249,5.6475 C132.581289,5.5605 132.236262,5.6475 132.236262,5.408 C132.236262,5.103 132.667917,5.1465 133.552512,4.667 C134.782133,3.991 134.652934,3.7515 134.933608,3.7515 C135.062807,3.7515 135.106369,3.839 135.106369,4.1005 L135.106369,5.604 L135.149435,5.604 C135.861269,4.7325 136.443904,3.8825 137.695306,3.8825 C139.033336,3.8825 140.06891,4.6235 140.06891,6.6285 L140.06891,12.8625 C140.06891,13.298 140.263452,13.5595 140.780744,13.6465 C141.212894,13.734 141.277246,13.8215 141.277246,13.9955 C141.277246,14.0825 141.169827,14.17 140.997066,14.17 C140.738173,14.17 140.241671,14.0825 139.141249,14.0825 C138.623462,14.0825 138.083894,14.17 137.565611,14.17 C137.307213,14.17 137.177518,14.1045 137.177518,13.952 C137.177518,13.7775 137.242365,13.734 137.544326,13.6465 C138.191807,13.4505 138.299721,13.342 138.299721,12.8625 L138.299721,6.7375" id="Fill-14"></path>
                                    <path d="M142.895455,9.462 C141.406445,5.0375 141.428226,4.754 141.039638,4.667 C140.845591,4.6235 140.716392,4.6015 140.716392,4.4055 C140.716392,4.253 140.80203,4.144 141.039638,4.144 C141.255465,4.144 141.773252,4.231 142.615276,4.231 C143.456804,4.231 144.08201,4.144 144.211704,4.144 C144.449312,4.144 144.556731,4.209 144.556731,4.3835 C144.556731,4.558 144.449312,4.6015 144.190419,4.667 C143.542937,4.8195 143.370176,4.9065 143.370176,5.2775 C143.370176,5.4515 143.435023,5.757 144.233485,8.198 C145.182927,11.075 145.096299,11.293 145.312621,11.293 C145.506173,11.293 145.527953,11.0095 145.635867,10.7045 L147.06003,6.062 C147.124877,5.8005 147.211505,5.5605 147.211505,5.408 C147.211505,4.972 146.930831,4.754 146.369977,4.667 C146.067522,4.6235 145.981389,4.6015 145.981389,4.449 C145.981389,4.231 146.089302,4.144 146.32691,4.144 C146.585309,4.144 146.930831,4.231 147.534751,4.231 C148.204013,4.231 148.527754,4.144 148.700515,4.144 C148.872781,4.144 148.937628,4.253 148.937628,4.362 C148.937628,4.5145 148.807934,4.6455 148.635668,4.667 C148.225794,4.7325 147.966405,5.2775 147.729292,6.0185 L143.996372,18.028 C143.823611,18.5945 143.693917,18.878 142.874169,18.878 C142.01086,18.878 141.902947,18.747 141.902947,17.8535 C141.902947,16.938 141.967794,16.829 142.917236,16.829 C143.78005,16.829 143.909744,16.7855 144.211704,15.652 L144.556731,14.388 L142.895455,9.462" id="Fill-15"></path>
                                    <path d="M62.5522791,11.699 C63.4893455,11.699 65.7817674,8.079 65.7817674,7.209 C65.7817674,6.8125 65.5535648,6.608 65.1991329,6.608 C63.92001,6.608 62.1597309,9.7805 62.1597309,11.136 C62.1597309,11.4685 62.2735847,11.699 62.5522791,11.699 L62.5522791,11.699 L62.5522791,11.699 Z M65.5664352,10.2665 C65.3253621,11.008 65.3006113,11.2 65.3006113,11.341 C65.3006113,11.4815 65.3634784,11.52 65.439711,11.52 C65.5535648,11.52 65.7941429,11.277 66.2248073,10.6115 C66.5411229,10.1255 66.4906312,9.985 66.6173555,9.985 C66.6807176,9.985 66.7059635,10.023 66.7059635,10.087 C66.7059635,10.4455 65.5535648,12.3895 64.7303522,12.3895 C64.4392824,12.3895 64.3882957,12.185 64.3882957,11.929 C64.3882957,11.4685 64.6293688,10.8545 65.1357708,9.3325 L65.1105249,9.307 C64.6546146,10.0105 63.1349136,12.3895 62.134485,12.3895 C61.5518505,12.3895 61.3493887,11.929 61.3493887,11.251 C61.3493887,9.0125 63.654186,6.378 65.173887,6.378 C65.4902027,6.378 65.7436512,6.493 66.0094751,6.685 L66.1361993,6.378 C66.1743156,6.2755 66.1990664,6.25 66.3515316,6.25 L66.7188339,6.25 C66.7945714,6.25 66.8450631,6.2625 66.8450631,6.3395 C66.8450631,6.378 66.8198173,6.4675 66.7945714,6.531 L65.5664352,10.2665 L65.5664352,10.2665 L65.5664352,10.2665 Z" id="Fill-16"></path>
                                    <path d="M67.0346545,12.236 L67.795,10.023 C68.3137774,8.501 68.6177176,7.5035 68.6177176,7.209 C68.6177176,7.043 68.5672259,6.9405 68.4152558,6.9405 C68.212794,6.9405 67.9340997,7.209 67.5415515,7.772 C67.1366279,8.3475 67.1871196,8.4245 67.0603953,8.4245 C66.9970332,8.4245 66.9717874,8.399 66.9717874,8.335 C66.9717874,8.092 68.0860698,6.25 68.9092824,6.25 C69.2765847,6.25 69.4280598,6.506 69.4280598,6.851 C69.4280598,7.5035 68.9597741,8.6035 68.8459203,9.179 L68.8711661,9.2045 C69.314206,8.3095 70.7200532,6.25 71.9105681,6.25 C72.3031163,6.25 72.5689402,6.5185 72.5689402,6.9535 C72.5689402,7.465 72.4169701,7.7335 71.6952359,9.614 C71.1254718,11.1105 71.0997309,11.264 71.0997309,11.443 C71.0997309,11.5835 71.163093,11.6475 71.251701,11.6475 C71.4417874,11.6475 71.66999,11.4685 72.0115515,11.021 C72.5560698,10.3175 72.5308239,10.087 72.6446777,10.087 C72.7080399,10.087 72.7337807,10.1385 72.7337807,10.2025 C72.7337807,10.4835 71.5685116,12.3385 70.8086611,12.3385 C70.416113,12.3385 70.2893887,12.057 70.2893887,11.7375 C70.2893887,11.341 70.4794751,10.65 70.7834153,9.8825 C71.5432658,7.964 71.758598,7.478 71.758598,7.094 C71.758598,6.851 71.6442492,6.736 71.4799037,6.736 C70.9101395,6.736 69.8844651,7.823 68.9092824,9.5885 C68.5543555,10.228 67.9845914,11.5455 67.8583621,11.9545 C67.7821296,12.1975 67.7692591,12.236 67.6301595,12.236 L67.0346545,12.236" id="Fill-17"></path>
                                    <path d="M74.4559435,11.7755 C75.303907,11.7755 77.6849369,8.092 77.6849369,7.0685 C77.6849369,6.7105 77.5077209,6.48 77.1023023,6.48 C75.810309,6.48 73.9619169,9.243 73.9619169,11.0335 C73.9619169,11.5455 74.1391329,11.7755 74.4559435,11.7755 L74.4559435,11.7755 L74.4559435,11.7755 Z M78.5081495,4.664 C78.583887,4.421 78.6220033,4.293 78.6220033,4.229 C78.6220033,4.0625 78.5715116,3.9475 78.2804419,3.922 C78.0393688,3.8965 77.9888771,3.858 77.9888771,3.7555 C78.0012525,3.6665 78.1537176,3.615 78.3685548,3.615 C79.2298837,3.615 79.597186,3.18 79.6981694,3.18 C79.7615316,3.18 79.7872724,3.2055 79.7872724,3.2825 C79.7872724,3.3465 79.7110399,3.487 79.5080831,4.1395 C79.178897,5.201 77.1780399,11.008 77.1780399,11.392 C77.1780399,11.494 77.2161561,11.571 77.3176346,11.571 C77.4819801,11.571 77.6849369,11.405 78.1279767,10.6245 C78.3938007,10.151 78.3938007,10.036 78.5081495,10.036 C78.5586412,10.036 78.6220033,10.087 78.6220033,10.1385 C78.6220033,10.2535 78.4952791,10.5475 78.3056877,10.88 C77.8745282,11.6475 77.2542724,12.3895 76.7602458,12.3895 C76.5072924,12.3895 76.3676977,12.236 76.3676977,11.8265 C76.3676977,11.443 76.5577841,10.727 76.9379568,9.499 L76.9122159,9.473 C75.6840797,11.379 74.7722591,12.3895 74.0252791,12.3895 C73.5564983,12.3895 73.1510797,12.108 73.1510797,11.0975 C73.1510797,8.578 75.4687475,6.25 77.2037807,6.25 C77.4819801,6.25 77.7230532,6.3395 77.9378904,6.48 L78.5081495,4.664 L78.5081495,4.664 L78.5081495,4.664 Z" id="Fill-18"></path>
                                </g>
                            </g>
                        </g>
                    </g>
                </g>
            </g>
            <g id="database" sketch:type="MSLayerGroup" transform="translate(5.000000, 7.000000)">
                <path d="M22.2527735,22.8785033 C13.5313096,22.8785033 4.78086923,21.304821 0,17.9243195 L0,22.8785033 C0,26.9875627 9.9673875,30.3389221 22.2527735,30.3389221 C34.5381594,30.3389221 44.5055469,26.9875627 44.5055469,22.8785033 L44.5055469,17.9243195 C39.7246777,21.304821 30.974239,22.8785033 22.2527735,22.8785033 L22.2527735,22.8785033 Z M22.2527735,45.2597614 C13.5313096,45.2597614 4.78086923,43.686079 0,40.3055775 L0,45.2597614 C0,49.3688207 9.9673875,52.7201819 22.2527735,52.7201819 C34.5381594,52.7201819 44.5055469,49.3688207 44.5055469,45.2597614 L44.5055469,40.3055775 C39.7246777,43.686079 30.974239,45.2597614 22.2527735,45.2597614 L22.2527735,45.2597614 Z M22.2527735,34.0691324 C13.5313096,34.0691324 4.78086923,32.49545 0,29.1149485 L0,34.0691324 C0,38.1781917 9.9673875,41.5295529 22.2527735,41.5295529 C34.5381594,41.5295529 44.5055469,38.1781917 44.5055469,34.0691324 L44.5055469,29.1149485 C39.7246777,32.49545 30.974239,34.0691324 22.2527735,34.0691324 L22.2527735,34.0691324 Z M22.2527735,0.497245316 C9.9673875,0.497245316 0,3.84860473 0,7.95766408 L0,11.6878743 C0,15.7969337 9.9673875,19.1482931 22.2527735,19.1482931 C34.5381594,19.1482931 44.5055469,15.7969337 44.5055469,11.6878743 L44.5055469,7.95766408 C44.5055469,3.84860473 34.5381594,0.497245316 22.2527735,0.497245316 L22.2527735,0.497245316 Z" id="Shape" sketch:type="MSShapeGroup"></path>
            </g>
            <path d="M76.648,51.594 C76.648,52.3420037 76.5063348,53.0559966 76.223,53.736 C75.9396653,54.4160034 75.5486692,55.0109975 75.05,55.521 C74.5513308,56.0310026 73.96767,56.4389985 73.299,56.745 C72.63033,57.0510015 71.9106705,57.204 71.14,57.204 C70.4826634,57.204 69.8140034,57.1133342 69.134,56.932 C68.4539966,56.7506658 67.8420027,56.4390022 67.298,55.997 C66.7539973,55.5549978 66.3063351,54.971337 65.955,54.246 C65.6036649,53.520663 65.428,52.6026722 65.428,51.492 L65.428,38.164 C65.428,37.3706627 65.5639986,36.6340034 65.836,35.954 C66.1080014,35.2739966 66.4933308,34.6846692 66.992,34.186 C67.4906692,33.6873308 68.0856632,33.2963347 68.777,33.013 C69.4683368,32.7296652 70.2333291,32.588 71.072,32.588 C71.8653373,32.588 72.6019966,32.7296652 73.282,33.013 C73.9620034,33.2963347 74.5513308,33.6929975 75.05,34.203 C75.5486692,34.7130025 75.9396653,35.3249964 76.223,36.039 C76.5063348,36.7530036 76.648,37.5293291 76.648,38.368 L76.648,39.728 L73.18,39.728 L73.18,38.572 C73.18,37.8919966 72.9873353,37.3026692 72.602,36.804 C72.2166647,36.3053308 71.6953366,36.056 71.038,36.056 C70.1766624,36.056 69.6043348,36.3223307 69.321,36.855 C69.0376653,37.3876693 68.896,38.0619959 68.896,38.878 L68.896,51.254 C68.896,51.9566702 69.0489985,52.5459976 69.355,53.022 C69.6610015,53.4980024 70.2106627,53.736 71.004,53.736 C71.2306678,53.736 71.474332,53.6963337 71.735,53.617 C71.995668,53.5376663 72.2336656,53.4073342 72.449,53.226 C72.6643344,53.0446658 72.8399993,52.7953349 72.976,52.478 C73.1120007,52.1606651 73.18,51.7640024 73.18,51.288 L73.18,50.098 L76.648,50.098 L76.648,51.594 Z M80.77,32.792 L84.238,32.792 L84.238,53.532 L91.106,53.532 L91.106,57 L80.77,57 L80.77,32.792 Z M94.7519999,32.792 L98.2199999,32.792 L98.2199999,57 L94.7519999,57 L94.7519999,32.792 Z M102.886,32.792 L113.222,32.792 L113.222,36.056 L106.354,36.056 L106.354,43.162 L112.338,43.162 L112.338,46.426 L106.354,46.426 L106.354,53.532 L113.222,53.532 L113.222,57 L102.886,57 L102.886,32.792 Z M116.63,32.792 L119.962,32.792 L125.198,47.378 L125.266,47.378 L125.266,32.792 L128.734,32.792 L128.734,57 L125.47,57 L120.166,42.448 L120.098,42.448 L120.098,57 L116.63,57 L116.63,32.792 Z M135.44,36.056 L131.428,36.056 L131.428,32.792 L142.92,32.792 L142.92,36.056 L138.908,36.056 L138.908,57 L135.44,57 L135.44,36.056 Z M153.374,32.792 L158.508,32.792 C160.48001,32.792 161.987328,33.3416612 163.03,34.441 C164.072672,35.5403388 164.594,37.0759901 164.594,39.048 L164.594,50.37 C164.594,52.636678 164.044338,54.3083279 162.945,55.385 C161.845661,56.4616721 160.264677,57 158.202,57 L153.374,57 L153.374,32.792 Z M156.842,53.736 L158.44,53.736 C159.414671,53.736 160.105998,53.4923358 160.514,53.005 C160.922002,52.5176642 161.126,51.7526719 161.126,50.71 L161.126,39.048 C161.126,38.0959952 160.933335,37.3593359 160.548,36.838 C160.162664,36.3166641 159.460005,36.056 158.44,36.056 L156.842,36.056 L156.842,53.736 Z M174.054,39.762 L173.986,39.762 L172.286,48.534 L175.754,48.534 L174.054,39.762 Z M172.592,32.792 L175.482,32.792 L180.888,57 L177.42,57 L176.4,51.798 L171.674,51.798 L170.654,57 L167.186,57 L172.592,32.792 Z M184.296,36.056 L180.284,36.056 L180.284,32.792 L191.776,32.792 L191.776,36.056 L187.764,36.056 L187.764,57 L184.296,57 L184.296,36.056 Z M198.04,39.762 L197.972,39.762 L196.272,48.534 L199.74,48.534 L198.04,39.762 Z M196.578,32.792 L199.468,32.792 L204.874,57 L201.406,57 L200.386,51.798 L195.66,51.798 L194.64,57 L191.172,57 L196.578,32.792 Z M207.873999,32.792 L212.939999,32.792 C214.050672,32.792 214.996996,32.9619983 215.778999,33.302 C216.561003,33.6420017 217.20133,34.0953305 217.699999,34.662 C218.198669,35.2286695 218.555665,35.8803297 218.770999,36.617 C218.986334,37.3536703 219.093999,38.1186627 219.093999,38.912 L219.093999,39.796 C219.093999,40.4533366 219.043,41.0086644 218.940999,41.462 C218.838999,41.9153356 218.686,42.3119983 218.481999,42.652 C218.277998,42.9920017 218.028668,43.292332 217.733999,43.553 C217.439331,43.813668 217.099335,44.0573322 216.713999,44.284 C217.530004,44.6693353 218.130664,45.2416629 218.515999,46.001 C218.901335,46.7603371 219.093999,47.7746603 219.093999,49.044 L219.093999,50.404 C219.093999,52.5346773 218.578338,54.166661 217.546999,55.3 C216.515661,56.433339 214.866677,57 212.599999,57 L207.873999,57 L207.873999,32.792 Z M211.341999,53.532 L212.837999,53.532 C213.54067,53.532 214.090331,53.430001 214.486999,53.226 C214.883668,53.021999 215.183998,52.7386685 215.387999,52.376 C215.592,52.0133315 215.716666,51.5826692 215.761999,51.084 C215.807333,50.5853308 215.829999,50.0413363 215.829999,49.452 C215.829999,48.8399969 215.796,48.3073356 215.727999,47.854 C215.659999,47.4006644 215.518334,47.0210015 215.302999,46.715 C215.087665,46.4089985 214.787335,46.1766675 214.401999,46.018 C214.016664,45.8593325 213.506669,45.78 212.871999,45.78 L211.341999,45.78 L211.341999,53.532 Z M211.341999,42.72 L212.905999,42.72 C214.062005,42.72 214.838331,42.4310029 215.234999,41.853 C215.631668,41.2749971 215.829999,40.4306722 215.829999,39.32 C215.829999,38.2319946 215.609002,37.4160027 215.166999,36.872 C214.724997,36.3279973 213.926005,36.056 212.769999,36.056 L211.341999,36.056 L211.341999,42.72 Z M228.553999,39.762 L228.485999,39.762 L226.785999,48.534 L230.253999,48.534 L228.553999,39.762 Z M227.091999,32.792 L229.981999,32.792 L235.387999,57 L231.919999,57 L230.899999,51.798 L226.173999,51.798 L225.153999,57 L221.685999,57 L227.091999,32.792 Z M249.607999,39.762 L246.139999,39.762 L246.139999,38.98 C246.139999,38.1866627 245.953001,37.5010029 245.578999,36.923 C245.204998,36.3449971 244.576004,36.056 243.691999,36.056 C243.215997,36.056 242.825001,36.1466658 242.518999,36.328 C242.212998,36.5093342 241.975,36.7416652 241.804999,37.025 C241.634999,37.3083348 241.516,37.6369981 241.447999,38.011 C241.379999,38.3850019 241.345999,38.775998 241.345999,39.184 C241.345999,39.6600024 241.362999,40.0623317 241.396999,40.391 C241.431,40.7196683 241.515999,41.0029988 241.651999,41.241 C241.788,41.4790012 241.986331,41.6886658 242.246999,41.87 C242.507667,42.0513342 242.864664,42.2326658 243.317999,42.414 L245.969999,43.468 C246.74067,43.7626681 247.363997,44.1083314 247.839999,44.505 C248.316002,44.9016687 248.684331,45.3663307 248.944999,45.899 C249.205667,46.4316693 249.381332,47.0436632 249.471999,47.735 C249.562667,48.4263368 249.607999,49.2139956 249.607999,50.098 C249.607999,51.1180051 249.506,52.064329 249.301999,52.937 C249.097998,53.809671 248.763668,54.5576636 248.298999,55.181 C247.83433,55.8043365 247.21667,56.2973315 246.445999,56.66 C245.675329,57.0226685 244.734672,57.204 243.623999,57.204 C242.785329,57.204 242.003336,57.0566681 241.277999,56.762 C240.552662,56.4673319 239.929335,56.0650026 239.407999,55.555 C238.886663,55.0449974 238.473001,54.4386702 238.166999,53.736 C237.860998,53.0333298 237.707999,52.2740041 237.707999,51.458 L237.707999,50.166 L241.175999,50.166 L241.175999,51.254 C241.175999,51.8886698 241.362998,52.4609975 241.736999,52.971 C242.111001,53.4810025 242.739995,53.736 243.623999,53.736 C244.213336,53.736 244.672331,53.6510009 245.000999,53.481 C245.329668,53.3109992 245.578999,53.0730015 245.748999,52.767 C245.919,52.4609985 246.026666,52.0813356 246.071999,51.628 C246.117333,51.1746644 246.139999,50.6760027 246.139999,50.132 C246.139999,49.4973302 246.117333,48.976002 246.071999,48.568 C246.026666,48.159998 245.930333,47.8313346 245.782999,47.582 C245.635665,47.3326654 245.431667,47.1286675 245.170999,46.97 C244.910331,46.8113325 244.564668,46.6413342 244.133999,46.46 L241.651999,45.44 C240.155992,44.8279969 239.153002,44.0176717 238.642999,43.009 C238.132997,42.0003283 237.877999,40.7366743 237.877999,39.218 C237.877999,38.3113288 238.002665,37.4500041 238.251999,36.634 C238.501334,35.8179959 238.869664,35.1153363 239.356999,34.526 C239.844335,33.9366637 240.461996,33.4663351 241.209999,33.115 C241.958003,32.7636649 242.830661,32.588 243.827999,32.588 C244.689337,32.588 245.476996,32.7466651 246.190999,33.064 C246.905003,33.3813349 247.516997,33.8006641 248.026999,34.322 C248.537002,34.8433359 248.927998,35.4269968 249.199999,36.073 C249.472001,36.7190032 249.607999,37.3819966 249.607999,38.062 L249.607999,39.762 Z M253.491999,32.792 L263.827999,32.792 L263.827999,36.056 L256.959999,36.056 L256.959999,43.162 L262.943999,43.162 L262.943999,46.426 L256.959999,46.426 L256.959999,53.532 L263.827999,53.532 L263.827999,57 L253.491999,57 L253.491999,32.792 Z" id="CLIENT-DATABASE" sketch:type="MSShapeGroup"></path>
        </g>
    </g>
</svg>