<?xml version="1.0" encoding="UTF-8" standalone="no"?>
<svg width="822px" height="96px" viewBox="0 0 822 96" version="1.1" xmlns="http://www.w3.org/2000/svg" xmlns:xlink="http://www.w3.org/1999/xlink" xmlns:sketch="http://www.bohemiancoding.com/sketch/ns">
    <!-- Generator: Sketch 3.5.2 (25235) - http://www.bohemiancoding.com/sketch -->
    <title>Artboard</title>
    <desc>Created with Sketch.</desc>
    <defs></defs>
    <g id="Page-1" stroke="none" stroke-width="1" fill="none" fill-rule="evenodd" sketch:type="MSPage">
        <g id="Artboard" sketch:type="MSArtboardGroup" fill-opacity="0.123188406" fill="#FFFFFF">
            <g id="logo-white" sketch:type="MSLayerGroup" transform="translate(57.000000, 26.000000)">
                <g id="Artboard-1" sketch:type="MSShapeGroup">
                    <g id="Page-1">
                        <g id="Artboard-1">
                            <g id="Current-BAC-Logo_blck">
                                <g id="Logo---Top">
                                    <path d="M21.3770365,69.7956316 C21.3770365,75.9064737 24.1552691,79.2160263 31.4789103,79.2160263 C38.1739003,79.2160263 46.1290897,74.1217105 46.1290897,58.5904737 C46.1290897,48.0191842 40.697196,39.4897105 28.196598,39.4897105 C22.385196,39.4897105 21.3770365,40.2521053 21.3770365,43.0533947 L21.3770365,69.7956316 L21.3770365,69.7956316 L21.3770365,69.7956316 Z M21.3770365,31.0858421 C21.3770365,35.4148421 22.6401329,35.9231053 26.3019535,35.9231053 C35.0161595,35.9231053 42.3398007,31.5941053 42.3398007,18.8612368 C42.3398007,9.56644737 37.0353754,4.08947368 28.196598,4.08947368 C22.385196,4.08947368 21.3770365,5.99984211 21.3770365,9.31231579 L21.3770365,31.0858421 L21.3770365,31.0858421 L21.3770365,31.0858421 Z M9.00100997,8.29286842 C9.00100997,6.63663158 8.24199336,5.61718421 6.09530897,5.61718421 L2.1814485,5.61718421 C1.29786047,5.61718421 0.666312292,5.23452632 0.666312292,4.218 C0.666312292,2.94442105 1.92940864,2.30763158 3.69658472,2.0535 C14.0533953,0.779921053 20.6180199,0.525789474 28.4486379,0.525789474 C45.3700731,0.525789474 54.9678671,6.3825 54.9678671,18.9868421 C54.9678671,29.3010789 48.6523854,34.0127368 39.1820598,37.1966842 L39.1820598,37.4508158 C50.9265382,38.8529211 59.7682126,47.1282632 59.7682126,59.0987368 C59.7682126,71.0692105 50.8019668,82.7826316 37.794392,82.7826316 C32.2379269,82.7826316 27.4375814,82.2714474 18.9783123,82.2714474 C11.5272027,82.2714474 6.60228571,82.7826316 3.44454485,82.7826316 C1.29786047,82.7826316 0.666312292,82.2714474 0.666312292,81.3805263 C0.666312292,80.2354737 1.29786047,80.2354737 3.94862458,79.3445526 C8.11742193,77.9453684 9.00100997,77.5627105 9.00100997,74.1217105 L9.00100997,8.29286842 L9.00100997,8.29286842 L9.00100997,8.29286842 Z" id="Fill-3"></path>
                                    <path d="M90.4562392,25.7373947 C79.9719601,25.7373947 78.2047841,42.1624737 78.2047841,44.7096316 C78.2047841,46.7456053 79.343309,47.3853158 83.5092093,47.3853158 C95.3811561,47.3853158 98.7909369,45.7290789 98.7909369,38.3417368 C98.7909369,32.9932895 96.6413555,25.7373947 90.4562392,25.7373947 L90.4562392,25.7373947 L90.4562392,25.7373947 Z M80.3514684,50.4407368 C78.2047841,50.4407368 77.7007043,50.8204737 77.7007043,54.8953421 C77.7007043,67.1199474 83.0051296,77.9453684 92.6029236,77.9453684 C105.862538,77.9453684 105.103522,67.7567368 107.757183,67.7567368 C108.765342,67.7567368 109.14485,68.2679211 109.14485,69.2844474 C109.14485,72.4683947 103.208877,84.3103421 89.0656744,84.3103421 C76.3101395,84.3103421 66.0836944,73.7419737 66.0836944,54.1329474 C66.0836944,37.7078684 75.1745116,22.6819737 90.0767309,22.6819737 C103.208877,22.6819737 109.14485,34.1412632 109.14485,45.2178947 C109.14485,49.5468947 108.133794,50.4407368 105.355561,50.4407368 L80.3514684,50.4407368 L80.3514684,50.4407368 L80.3514684,50.4407368 Z" id="Fill-4"></path>
                                    <path d="M130.107615,72.5969211 C130.107615,77.1800526 131.498179,79.2160263 135.41204,79.7242895 C140.084917,80.364 140.464425,80.6181316 140.464425,81.6375789 C140.464425,82.1458421 140.084917,82.7826316 139.07386,82.7826316 C136.927176,82.7826316 132.885847,82.2714474 125.434738,82.2714474 C118.867216,82.2714474 114.828784,82.7826316 112.554631,82.7826316 C111.671043,82.7826316 110.912027,82.5285 110.912027,81.7631842 C110.912027,80.7466579 111.543575,80.364 114.701316,79.7242895 C118.615176,78.9618947 118.994684,77.6883158 118.994684,73.4878421 L118.994684,37.1966842 C118.994684,34.2668684 116.59596,33.8871316 114.573847,33.633 C112.931243,33.3759474 111.671043,33.1218158 111.671043,32.1023684 C111.671043,30.192 113.942299,30.9573158 121.393409,26.7568421 C126.570365,23.8270263 126.570365,22.1707895 127.70889,22.1707895 C128.340439,22.1707895 128.592478,23.1902368 128.592478,25.2291316 L128.592478,35.1607105 C128.592478,35.5404474 128.719947,35.6689737 128.844518,35.6689737 C129.348598,35.6689737 134.653023,22.6819737 143.242658,22.6819737 C147.788066,22.6819737 151.070379,26.4997895 151.070379,30.8317105 C151.070379,34.9065789 148.799123,39.2355789 144.882365,39.2355789 C141.852093,39.2355789 140.716465,37.7078684 140.084917,35.4148421 C139.3259,32.8676842 139.832877,30.5746579 137.683296,30.5746579 C133.389927,30.5746579 130.107615,38.2161316 130.107615,47.1282632 L130.107615,72.5969211" id="Fill-5"></path>
                                    <path d="M171.908571,74.3787632 C171.908571,78.0709737 173.044199,78.8362895 176.581449,79.7242895 C178.852704,80.364 179.232213,80.8722632 179.232213,81.5090526 C179.232213,82.2714474 178.600664,82.7826316 177.844545,82.7826316 C175.570392,82.7826316 170.770047,82.2714474 167.235694,82.2714474 C163.950485,82.2714474 159.784585,82.7826316 157.130924,82.7826316 C155.236279,82.7826316 154.732199,82.5285 154.732199,81.6375789 C154.732199,80.6181316 155.111708,80.2354737 157.006352,79.7242895 C160.540704,78.8362895 161.551761,78.4536316 161.551761,74.8870263 L161.551761,36.3057632 C161.551761,33.7586053 160.540704,32.7391579 158.14198,32.6135526 C156.122764,32.4850263 155.615787,32.6135526 155.615787,31.5941053 C155.615787,30.4490526 155.995296,30.5746579 162.055841,27.9018947 C169.761887,24.4638158 170.013927,21.9166579 171.401595,21.9166579 C172.033143,21.9166579 172.412651,22.1707895 172.412651,24.7179474 L172.412651,30.3205263 C172.412651,30.9573158 172.54012,31.0858421 172.792159,31.0858421 C173.548279,31.2143684 178.600664,22.6819737 188.32303,22.6819737 C198.175761,22.6819737 198.804412,31.4655789 200.699056,31.4655789 C202.596598,31.4655789 206.63503,22.6819737 215.980784,22.6819737 C223.052385,22.6819737 229.492439,27.6477632 229.492439,37.3252105 L229.492439,74.6328947 C229.492439,77.3056579 230.123987,78.5792368 233.533767,79.5986842 C235.932492,80.364 236.943548,80.4896053 236.943548,81.5090526 C236.943548,82.5285 236.187429,82.7826316 235.303841,82.7826316 C232.777648,82.7826316 227.977302,82.2714474 224.315482,82.2714474 C221.285209,82.2714474 216.484864,82.7826316 214.593116,82.7826316 C213.202551,82.7826316 212.571003,82.2714474 212.571003,81.6375789 C212.571003,80.364 214.08614,79.9813421 214.972625,79.7242895 C218.886485,78.5792368 219.138525,78.0709737 219.138525,73.3593158 L219.138525,37.7078684 C219.138525,32.1023684 216.360292,29.0469474 211.307907,29.0469474 C205.623973,29.0469474 200.699056,34.2668684 200.699056,39.4897105 L200.699056,72.5969211 C200.699056,77.8168421 201.333502,79.2160263 205.119894,79.8528158 C207.518618,80.364 208.657143,80.7466579 208.657143,81.7631842 C208.657143,82.3999737 208.277635,82.7826316 207.13911,82.7826316 C204.236306,82.7826316 199.438857,82.2714474 195.5221,82.2714474 C193.123375,82.2714474 188.07099,82.7826316 185.544797,82.7826316 C184.15713,82.7826316 183.90509,82.2714474 183.90509,81.5090526 C183.90509,80.6181316 184.536638,80.2354737 186.807894,79.7242895 C188.577967,79.3445526 190.345143,78.5792368 190.345143,75.6523421 L190.345143,38.8529211 C190.345143,32.3594211 186.683322,29.0469474 182.766565,29.0469474 C176.45398,29.0469474 171.908571,33.8871316 171.908571,39.9979737 L171.908571,74.3787632" id="Fill-6"></path>
                                    <path d="M265.48489,51.9655263 C265.48489,50.4407368 265.105382,50.1866053 264.221794,50.1866053 C262.579189,50.1866053 250.962179,60.2437895 250.582671,69.1588421 C250.582671,73.1051842 252.729355,76.1606053 256.263708,76.1606053 C262.199681,76.1606053 265.48489,71.5774737 265.48489,60.1181842 L265.48489,51.9655263 L265.48489,51.9655263 L265.48489,51.9655263 Z M275.838804,69.5385789 C275.838804,74.6328947 278.112957,76.1606053 280.007601,76.1606053 C282.658365,76.1606053 283.037874,72.0857368 285.05709,72.0857368 C285.816106,72.0857368 286.195615,72.5969211 286.195615,73.6134474 C286.195615,77.8168421 280.63915,83.7991579 275.210153,83.7991579 C267.127495,83.7991579 266.24101,74.3787632 264.725874,74.3787632 C263.210738,74.3787632 259.421449,84.3103421 249.571615,84.3103421 C243.004093,84.3103421 238.965661,80.7466579 238.965661,73.2307895 C238.965661,59.2243421 265.48489,50.3122105 265.48489,42.291 L265.48489,31.3399737 C265.48489,28.0304211 263.590246,25.7373947 260.180465,25.7373947 C255.38012,25.7373947 251.214219,29.8122632 250.4581,36.5598947 C249.823654,42.1624737 247.300359,45.6005526 242.627482,45.6005526 C239.597209,45.6005526 238.082073,43.9443158 238.082073,41.4000789 C238.082073,36.4342895 248.183947,22.6819737 263.338206,22.6819737 C273.18804,22.6819737 275.838804,24.4638158 275.838804,31.3399737 L275.838804,69.5385789 L275.838804,69.5385789 L275.838804,69.5385789 Z" id="Fill-7"></path>
                                    <path d="M324.207282,39.3611842 C324.207282,31.9767632 320.922073,29.0469474 316.376664,29.0469474 C311.579216,29.0469474 307.662458,32.3594211 305.515774,38.5987895 L305.515774,73.9961053 C305.515774,77.9453684 307.03091,78.9618947 309.681674,79.7242895 C312.210764,80.4896053 312.587375,80.8722632 312.587375,81.5090526 C312.587375,82.2714474 312.210764,82.7826316 311.072239,82.7826316 C308.673515,82.7826316 305.263734,82.2714474 300.08388,82.2714474 C296.045449,82.2714474 292.128691,82.7826316 290.109475,82.7826316 C288.721807,82.7826316 288.087362,82.5285 288.087362,81.3805263 C288.087362,80.364 289.098419,79.8528158 290.741023,79.4730789 C294.150804,78.7077632 295.16186,77.8168421 295.16186,73.4878421 L295.16186,37.8334737 C295.16186,34.0127368 294.530312,33.633 292.508199,32.9932895 C290.741023,32.4850263 288.721807,32.9932895 288.721807,31.5941053 C288.721807,29.8122632 291.245103,30.0663947 296.42206,27.2651053 C303.62113,23.3158421 302.86501,21.9166579 304.504718,21.9166579 C305.263734,21.9166579 305.515774,22.4278421 305.515774,23.9555526 L305.515774,32.7391579 L305.767814,32.7391579 C309.936611,27.6477632 313.346392,22.6819737 320.670033,22.6819737 C328.500651,22.6819737 334.561196,27.0109737 334.561196,38.7243947 L334.561196,75.1440789 C334.561196,77.6883158 335.696824,79.2160263 338.729993,79.7242895 C341.253289,80.2354737 341.632797,80.7466579 341.632797,81.7631842 C341.632797,82.2714474 341.001249,82.7826316 339.990193,82.7826316 C338.475056,82.7826316 335.572252,82.2714474 329.132199,82.2714474 C326.09903,82.2714474 322.944186,82.7826316 319.913914,82.7826316 C318.39588,82.7826316 317.639761,82.3999737 317.639761,81.5090526 C317.639761,80.4896053 318.019269,80.2354737 319.786445,79.7242895 C323.575734,78.5792368 324.207282,77.9453684 324.207282,75.1440789 L324.207282,39.3611842" id="Fill-8"></path>
                                    <path d="M518.043322,80.7466579 C522.591628,80.7466579 527.261608,78.0709737 529.915269,67.5026053 C532.818073,56.0433158 533.07301,55.7891842 534.333209,55.7891842 C536.482791,55.7891842 536.731934,56.0433158 536.731934,70.0497632 C536.731934,76.6717895 536.355322,78.4536316 534.840186,79.8528158 C533.07301,81.5090526 526.12598,84.3103421 517.791282,84.3103421 C497.839575,84.3103421 485.58812,64.5727895 485.58812,42.1624737 C485.58812,16.4426053 499.858791,0.525789474 517.663814,0.525789474 C524.231336,0.525789474 529.660332,1.79936842 533.452518,4.218 C534.840186,5.10892105 534.964757,5.36305263 534.964757,14.2781053 C534.964757,23.6985 534.712718,24.2096842 532.566033,24.2096842 C531.427508,24.2096842 530.546817,22.9361053 528.020625,15.8058158 C524.358804,5.49157895 521.325635,4.08947368 517.035163,4.08947368 C505.667296,4.08947368 499.227243,15.2946316 499.227243,41.6542105 C499.227243,68.2679211 508.320957,80.7466579 518.043322,80.7466579" id="Fill-9"></path>
                                    <path d="M577.269794,53.4961579 C577.269794,41.6542105 572.848957,25.7373947 564.641728,25.7373947 C556.431601,25.7373947 552.013661,41.6542105 552.013661,53.4961579 C552.013661,65.3381053 556.431601,81.2549211 564.641728,81.2549211 C572.848957,81.2549211 577.269794,65.3381053 577.269794,53.4961579 L577.269794,53.4961579 L577.269794,53.4961579 Z M564.641728,84.3103421 C550.623096,84.3103421 540.393754,69.9212368 540.393754,53.4961579 C540.393754,37.0681579 550.623096,22.6819737 564.641728,22.6819737 C578.657462,22.6819737 588.886804,37.0681579 588.886804,53.4961579 C588.886804,69.9212368 578.657462,84.3103421 564.641728,84.3103421 L564.641728,84.3103421 L564.641728,84.3103421 Z" id="Fill-10"></path>
                                    <path d="M606.060279,74.3787632 C606.060279,78.0709737 607.198804,78.8362895 610.733156,79.7242895 C613.007309,80.364 613.38392,80.8722632 613.38392,81.5090526 C613.38392,82.2714474 612.755269,82.7826316 611.996252,82.7826316 C609.724997,82.7826316 604.924651,82.2714474 601.390299,82.2714474 C598.10509,82.2714474 593.939189,82.7826316 591.288425,82.7826316 C589.390884,82.7826316 588.886804,82.5285 588.886804,81.6375789 C588.886804,80.6181316 589.263415,80.2354737 591.160957,79.7242895 C594.695309,78.8362895 595.706365,78.4536316 595.706365,74.8870263 L595.706365,36.3057632 C595.706365,33.7586053 594.695309,32.7391579 592.296585,32.6135526 C590.277369,32.4850263 589.770392,32.6135526 589.770392,31.5941053 C589.770392,30.4490526 590.1499,30.5746579 596.213342,27.9018947 C603.913595,24.4638158 604.168532,21.9166579 605.556199,21.9166579 C606.187748,21.9166579 606.567256,22.1707895 606.567256,24.7179474 L606.567256,30.3205263 C606.567256,30.9573158 606.691827,31.0858421 606.946764,31.0858421 C607.705781,31.2143684 612.755269,22.6819737 622.477635,22.6819737 C632.330365,22.6819737 632.959017,31.4655789 634.856558,31.4655789 C636.748306,31.4655789 640.789635,22.6819737 650.135389,22.6819737 C657.20699,22.6819737 663.647043,27.6477632 663.647043,37.3252105 L663.647043,74.6328947 C663.647043,77.3056579 664.278591,78.5792368 667.688372,79.5986842 C670.089993,80.364 671.098153,80.4896053 671.098153,81.5090526 C671.098153,82.5285 670.342033,82.7826316 669.455548,82.7826316 C666.932252,82.7826316 662.131907,82.2714474 658.470086,82.2714474 C655.436917,82.2714474 650.639468,82.7826316 648.747721,82.7826316 C647.357156,82.7826316 646.725608,82.2714474 646.725608,81.6375789 C646.725608,80.364 648.240744,79.9813421 649.124332,79.7242895 C653.038193,78.5792368 653.29313,78.0709737 653.29313,73.3593158 L653.29313,37.7078684 C653.29313,32.1023684 650.514897,29.0469474 645.462512,29.0469474 C639.781475,29.0469474 634.856558,34.2668684 634.856558,39.4897105 L634.856558,72.5969211 C634.856558,77.8168421 635.485209,79.2160263 639.274498,79.8528158 C641.673223,80.364 642.811748,80.7466579 642.811748,81.7631842 C642.811748,82.3999737 642.432239,82.7826316 641.293714,82.7826316 C638.388013,82.7826316 633.590565,82.2714474 629.676704,82.2714474 C627.275083,82.2714474 622.225595,82.7826316 619.699402,82.7826316 C618.311734,82.7826316 618.059694,82.2714474 618.059694,81.5090526 C618.059694,80.6181316 618.691243,80.2354737 620.962498,79.7242895 C622.729674,79.3445526 624.49685,78.5792368 624.49685,75.6523421 L624.49685,38.8529211 C624.49685,32.3594211 620.837927,29.0469474 616.921169,29.0469474 C610.605688,29.0469474 606.060279,33.8871316 606.060279,39.9979737 L606.060279,74.3787632" id="Fill-11"></path>
                                    <path d="M685.493395,66.7372895 C685.493395,75.3952895 688.526565,79.9813421 694.33507,79.9813421 C702.417728,79.9813421 707.467216,70.3038947 707.467216,54.7697368 C707.467216,38.7243947 702.417728,29.0469474 694.714578,29.0469474 C689.662193,29.0469474 685.493395,33.3759474 685.493395,37.3252105 L685.493395,66.7372895 L685.493395,66.7372895 L685.493395,66.7372895 Z M685.493395,98.9535789 C685.493395,104.427632 686.88396,105.829737 693.196545,106.466526 C695.595269,106.720658 696.102246,107.103316 696.102246,107.994237 C696.102246,108.885158 695.595269,109.521947 693.955561,109.521947 C690.925289,109.521947 688.399096,109.013684 681.200027,109.013684 C677.538206,109.013684 673.876385,109.521947 670.214565,109.521947 C668.57196,109.521947 667.184292,109.396342 667.184292,107.994237 C667.184292,106.338 668.444492,106.466526 669.962525,106.212395 C672.613289,105.704132 675.139482,105.955342 675.139482,102.391658 L675.139482,37.4508158 C675.139482,33.7586053 673.244837,33.8871316 670.466605,33.1218158 C668.824,32.6135526 667.563801,32.6135526 667.563801,31.4655789 C667.563801,29.5581316 670.342033,30.192 678.045183,26.2456579 C682.842631,23.8270263 683.22214,22.6819737 684.357767,22.6819737 C684.989316,22.6819737 685.113887,22.9361053 685.113887,25.7373947 C685.113887,30.7031842 685.241355,30.8317105 685.620864,30.8317105 C686.124944,30.8317105 692.188385,22.6819737 699.891535,22.6819737 C711.004465,22.6819737 719.087123,35.4148421 719.087123,51.5857895 C719.087123,71.3204211 708.353701,83.0367632 696.226817,83.0367632 C689.662193,83.0367632 686.504452,79.7242895 686.000372,79.7242895 C685.620864,79.7242895 685.493395,79.9813421 685.493395,81.3805263 L685.493395,98.9535789 L685.493395,98.9535789 L685.493395,98.9535789 Z" id="Fill-12"></path>
                                    <path d="M750.655841,51.9655263 C750.655841,50.4407368 750.276332,50.1866053 749.392744,50.1866053 C747.75014,50.1866053 736.13313,60.2437895 735.753621,69.1588421 C735.753621,73.1051842 737.900306,76.1606053 741.437555,76.1606053 C747.370631,76.1606053 750.655841,71.5774737 750.655841,60.1181842 L750.655841,51.9655263 L750.655841,51.9655263 L750.655841,51.9655263 Z M761.009754,69.5385789 C761.009754,74.6328947 763.283907,76.1606053 765.178551,76.1606053 C767.829316,76.1606053 768.208824,72.0857368 770.230937,72.0857368 C770.987056,72.0857368 771.366565,72.5969211 771.366565,73.6134474 C771.366565,77.8168421 765.8101,83.7991579 760.381103,83.7991579 C752.298445,83.7991579 751.414857,74.3787632 749.899721,74.3787632 C748.381688,74.3787632 744.592399,84.3103421 734.742565,84.3103421 C728.175043,84.3103421 724.136611,80.7466579 724.136611,73.2307895 C724.136611,59.2243421 750.655841,50.3122105 750.655841,42.291 L750.655841,31.3399737 C750.655841,28.0304211 748.761196,25.7373947 745.351415,25.7373947 C740.553967,25.7373947 736.385169,29.8122632 735.62905,36.5598947 C734.997502,42.1624737 732.471309,45.6005526 727.798432,45.6005526 C724.768159,45.6005526 723.250126,43.9443158 723.250126,41.4000789 C723.250126,36.4342895 733.354897,22.6819737 748.509156,22.6819737 C758.35899,22.6819737 761.009754,24.4638158 761.009754,31.3399737 L761.009754,69.5385789 L761.009754,69.5385789 L761.009754,69.5385789 Z" id="Fill-13"></path>
                                    <path d="M366.077767,68.3467895 C371.561807,68.3467895 384.97786,47.1983684 384.97786,42.1157368 C384.97786,39.7993421 383.642339,38.6046316 381.56808,38.6046316 C374.082206,38.6046316 363.780439,57.1387105 363.780439,65.0576842 C363.780439,67.0001842 364.446751,68.3467895 366.077767,68.3467895 L366.077767,68.3467895 L366.077767,68.3467895 Z M383.717661,59.9779737 C382.306817,64.3098947 382.161967,65.4315789 382.161967,66.2553158 C382.161967,67.0761316 382.529887,67.3010526 382.976027,67.3010526 C383.642339,67.3010526 385.050286,65.8814211 387.570684,61.9935 C389.421874,59.1542368 389.126379,58.3334211 389.868013,58.3334211 C390.238831,58.3334211 390.386578,58.5554211 390.386578,58.9293158 C390.386578,61.0237105 383.642339,72.3807632 378.824611,72.3807632 C377.121169,72.3807632 376.822777,71.1860526 376.822777,69.6904737 C376.822777,67.0001842 378.233621,63.4131316 381.197262,54.5214474 L381.049515,54.3724737 C378.381369,58.4823947 369.487548,72.3807632 363.632691,72.3807632 C360.22291,72.3807632 359.038033,69.6904737 359.038033,65.7295263 C359.038033,52.6519737 372.526512,37.2609474 381.420332,37.2609474 C383.271522,37.2609474 384.754791,37.9327895 386.310485,39.0544737 L387.05212,37.2609474 C387.275189,36.6621316 387.42004,36.5131579 388.312319,36.5131579 L390.4619,36.5131579 C390.905143,36.5131579 391.200638,36.5861842 391.200638,37.0360263 C391.200638,37.2609474 391.05289,37.7838158 390.905143,38.1547895 L383.717661,59.9779737 L383.717661,59.9779737 L383.717661,59.9779737 Z" id="Fill-16"></path>
                                    <path d="M392.310193,71.484 L396.76,58.5554211 C399.796066,49.6637368 401.574831,43.8362368 401.574831,42.1157368 C401.574831,41.1459474 401.279336,40.5471316 400.389953,40.5471316 C399.205076,40.5471316 397.57406,42.1157368 395.276731,45.4048421 C392.906977,48.7669737 393.202472,49.2168158 392.460837,49.2168158 C392.09002,49.2168158 391.942272,49.0678421 391.942272,48.6939474 C391.942272,47.2743158 398.463442,36.5131579 403.281169,36.5131579 C405.430751,36.5131579 406.317236,38.0087368 406.317236,40.0242632 C406.317236,43.8362368 403.576664,50.2625526 402.910352,53.6246842 L403.0581,53.7736579 C405.650924,48.5449737 413.878432,36.5131579 420.845741,36.5131579 C423.14307,36.5131579 424.698764,38.0817632 424.698764,40.6230789 C424.698764,43.6113158 423.809382,45.1799211 419.585542,56.166 C416.251083,64.9087105 416.100439,65.8054737 416.100439,66.8512105 C416.100439,67.6720263 416.471256,68.0459211 416.989821,68.0459211 C418.102272,68.0459211 419.437794,67.0001842 421.436731,64.3858421 C424.623442,60.2759211 424.475694,58.9293158 425.142007,58.9293158 C425.512824,58.9293158 425.663468,59.2301842 425.663468,59.6040789 C425.663468,61.2457105 418.843907,72.0828158 414.396997,72.0828158 C412.099668,72.0828158 411.358033,70.4382632 411.358033,68.5717105 C411.358033,66.2553158 412.470485,62.2184211 414.249249,57.7346053 C418.696159,46.5265263 419.956359,43.6872632 419.956359,41.4438947 C419.956359,40.0242632 419.28715,39.3524211 418.325342,39.3524211 C414.990884,39.3524211 408.988279,45.7027895 403.281169,56.0170263 C401.204013,59.7530526 397.869555,67.4500263 397.130817,69.8394474 C396.684678,71.2590789 396.609355,71.484 395.795296,71.484 L392.310193,71.484" id="Fill-17"></path>
                                    <path d="M435.742166,68.7937105 C440.704744,68.7937105 454.639362,47.2743158 454.639362,41.2949211 C454.639362,39.2034474 453.602233,37.8568421 451.229581,37.8568421 C443.668385,37.8568421 432.85095,53.9985789 432.85095,64.4588684 C432.85095,67.4500263 433.88808,68.7937105 435.742166,68.7937105 L435.742166,68.7937105 L435.742166,68.7937105 Z M459.45709,27.2475789 C459.900332,25.8279474 460.123402,25.0801579 460.123402,24.7062632 C460.123402,23.7335526 459.827907,23.0617105 458.124465,22.9127368 C456.713621,22.7637632 456.418126,22.5388421 456.418126,21.9400263 C456.490551,21.4200789 457.382831,21.1192105 458.640133,21.1192105 C463.68093,21.1192105 465.830512,18.5778947 466.421502,18.5778947 C466.792319,18.5778947 466.942963,18.7268684 466.942963,19.1767105 C466.942963,19.5506053 466.496824,20.3714211 465.30905,24.1833947 C463.382538,30.3847895 451.672824,64.3098947 451.672824,66.5532632 C451.672824,67.1491579 451.895894,67.599 452.489781,67.599 C453.451588,67.599 454.639362,66.6292105 457.232186,62.0694474 C458.78788,59.3032105 458.78788,58.6313684 459.45709,58.6313684 C459.752585,58.6313684 460.123402,58.9293158 460.123402,59.2301842 C460.123402,59.9020263 459.381767,61.6196053 458.272213,63.5621053 C455.748917,68.0459211 452.118963,72.3807632 449.227748,72.3807632 C447.747375,72.3807632 446.930419,71.484 446.930419,69.0916579 C446.930419,66.8512105 448.04287,62.6682632 450.267774,55.4941579 L450.11713,55.3422632 C442.929648,66.4773158 437.593355,72.3807632 433.221767,72.3807632 C430.478299,72.3807632 428.105648,70.7362105 428.105648,64.8327632 C428.105648,50.1135789 441.669449,36.5131579 451.823468,36.5131579 C453.451588,36.5131579 454.862432,37.0360263 456.119734,37.8568421 L459.45709,27.2475789 L459.45709,27.2475789 L459.45709,27.2475789 Z" id="Fill-18"></path>
                                </g>
                            </g>
                        </g>
                    </g>
                </g>
            </g>
        </g>
    </g>
</svg>